<svg xmlns="http://www.w3.org/2000/svg" viewBox="0 0 1440 320">
  <defs>
    <linearGradient id="wave-gradient" x1="0.5" y1="0" x2="0.5" y2="1">
      <stop offset="0%" stop-color="rgba(26, 17, 60, 0)" />
      <stop offset="100%" stop-color="rgba(26, 17, 60, 1)" />
    </linearGradient>
  </defs>
  <path fill="url(#wave-gradient)" d="M0,192L48,176C96,160,192,128,288,133.3C384,139,480,181,576,186.7C672,192,768,160,864,138.7C960,117,1056,107,1152,122.7C1248,139,1344,181,1392,202.7L1440,224L1440,320L1392,320C1344,320,1248,320,1152,320C1056,320,960,320,864,320C768,320,672,320,576,320C480,320,384,320,288,320C192,320,96,320,48,320L0,320Z"></path>
</svg>
